<svg width="124" height="124" fill="none" xmlns="http://www.w3.org/2000/svg"><mask id="a" fill="#fff"><path fill-rule="evenodd" clip-rule="evenodd" d="M11.357 73.723L24 53.429h-9.154L.628 76.229l22.8 14.218 10.716-2.485-22.787-14.24z"/></mask><path fill-rule="evenodd" clip-rule="evenodd" d="M11.357 73.723L24 53.429h-9.154L.628 76.229l22.8 14.218 10.716-2.485-22.787-14.24z" fill="#26BAE9"/><path d="M24 53.429l.849.529.952-1.53H24v1zM11.357 73.723l-.848-.529-.529.848.847.529.53-.848zm3.489-20.294v-1h-.555l-.294.47.849.53zM.628 76.229l-.849-.529-1.292 2.072 2.375-.57-.234-.973zm0 0l.639.77-.873-1.742.234.972zm0 0l-.639-.77-1.066.886 1.176.733.529-.849zm22.8 14.218l-.529.848.352.22.403-.094-.226-.974zm10.716-2.485l.226.974 2.349-.544-2.045-1.278-.53.848zM23.151 52.9L10.508 73.194l1.698 1.058 12.643-20.294L23.15 52.9zm-8.305 1.529H24v-2h-9.154v2zm-13.37 22.33l14.218-22.801-1.697-1.058L-.22 75.7l1.697 1.058zM.394 75.256L.862 77.2l-.468-1.944zm-.405.203l1.278 1.539-1.278-1.54zm.11 1.618l22.8 14.217 1.058-1.697-22.8-14.217L.1 77.078zM23.654 91.42l10.716-2.485-.452-1.948-10.716 2.485.452 1.948zm11.02-4.307l-22.787-14.24-1.06 1.697 22.787 14.24 1.06-1.697z" fill="#000" mask="url(#a)"/><mask id="b" fill="#fff"><path fill-rule="evenodd" clip-rule="evenodd" d="M112.578 50.206L89.856 36.038l10.716-2.485 22.8 14.218-14.218 22.8L99.5 70.5l13.078-20.294z"/></mask><path fill-rule="evenodd" clip-rule="evenodd" d="M112.578 50.206L89.856 36.038l10.716-2.485 22.8 14.218-14.218 22.8L99.5 70.5l13.078-20.294z" fill="#26BAE9"/><path d="M89.856 36.038l-.226-.974-2.352.545 2.049 1.277.529-.848zm22.722 14.169l.841.541.549-.853-.861-.537-.529.849zm-12.006-16.654l.529-.848-.352-.22-.403.094.226.974zm22.8 14.218l.849.529.529-.848-.849-.53-.529.849zm-14.218 22.8l-.007 1 .56.004.296-.475-.849-.529zM99.5 70.5l-.84-.542-.986 1.529 1.819.013.007-1zM89.327 36.886l22.722 14.17 1.058-1.698-22.722-14.169-1.058 1.697zm11.019-4.307L89.63 35.063l.452 1.949 10.716-2.485-.452-1.948zm23.555 14.343l-22.8-14.217-1.058 1.697 22.8 14.218 1.058-1.698zm-1.377.32l-14.218 22.8 1.697 1.058 14.218-22.8-1.697-1.058zm-13.362 22.33l-9.655-.072-.014 2 9.654.071.015-2zm-8.821 1.47l13.078-20.294-1.682-1.083-13.078 20.293 1.682 1.084z" fill="#000" mask="url(#b)"/><mask id="c" fill="#fff"><path fill-rule="evenodd" clip-rule="evenodd" d="M47.77.628L95 30H80.5L50.255 11.344 39 30h-9.5L47.77.628z"/></mask><path fill-rule="evenodd" clip-rule="evenodd" d="M47.77.628L95 30H80.5L50.255 11.344 39 30h-9.5L47.77.628z" fill="#26BAE9"/><path d="M95 30v1h3.501l-2.973-1.85L95 30zM47.77.628l-.97.237.096.397.347.215.528-.849zM80.5 30l-.525.851.241.149h.284v-1zM50.255 11.344l.525-.851-.86-.53-.52.864.855.517zM39 30v1h.565l.291-.483L39 30zm-9.5 0l-.85-.528L27.7 31h1.8v-1zM47.77.628l.85.528.216-.347-.09-.4-.975.219zm0 0l.529-.85-2.025-1.259.521 2.327.976-.218zm0 0l-.527.85.849.527.528-.849-.85-.528zm0 0l.972-.237-.564-2.31L46.922.1l.849.528zM95.529 29.15L48.3-.221l-1.056 1.698L94.472 30.85l1.056-1.698zM80.5 31H95v-2H80.5v2zM49.73 12.195L79.975 30.85l1.05-1.702L50.78 10.493l-1.05 1.702zm-.33-1.368L38.143 29.483l1.712 1.034L51.112 11.86l-1.713-1.033zM39 29h-9.5v2H39v-2zm-8.65 1.528L48.62 1.156 46.922.1 28.65 29.472l1.698 1.056zM46.794.846L48.747.41l-1.952.436zM48.299-.22l-1.056 1.698L48.299-.22zm.321 1.377L46.922.1l1.698 1.056zM46.8.866L48.742.39 46.8.865z" fill="#000" mask="url(#c)"/><mask id="d" fill="#fff"><path fill-rule="evenodd" clip-rule="evenodd" d="M43.5 94l30.245 18.656L85 94h9.5l-18.27 29.372L29 94h14.5z"/></mask><path fill-rule="evenodd" clip-rule="evenodd" d="M43.5 94l30.245 18.656L85 94h9.5l-18.27 29.372L29 94h14.5z" fill="#26BAE9"/><path d="M73.745 112.656l-.525.851.86.531.52-.865-.855-.517zM43.5 94l.525-.851-.241-.149H43.5v1zM85 94v-1h-.565l-.291.483L85 94zm9.5 0l.85.528L96.3 93h-1.8v1zm-18.27 29.372l.326.945.335-.116.187-.301-.849-.528zm0 0l-.98.203.23 1.114 1.076-.372-.327-.945zm0 0l.978-.203-.087-.42-.364-.226-.528.849zM29 94v-1h-3.502l2.974 1.85L29 94zm45.27 17.805L44.025 93.149l-1.05 1.702 30.245 18.656 1.05-1.702zm.33 1.368l11.256-18.656-1.712-1.034-11.256 18.657 1.713 1.033zM85 95h9.5v-2H85v2zm8.65-1.528l-18.27 29.372 1.698 1.056L95.35 94.528l-1.698-1.056zm-17.748 28.955l.654 1.89-.654-1.89zm1.306.742l-1.958.406 1.958-.406zm-48.736-28.32L75.7 124.221l1.056-1.698-47.229-29.372-1.056 1.698zM43.5 93H29v2h14.5v-2z" fill="#000" mask="url(#d)"/><g filter="url(#filter0_d_102_26)"><mask id="e" fill="#fff"><path fill-rule="evenodd" clip-rule="evenodd" d="M30.558 30H8l1.735 1.94h4.677L53.115 94H70.47L30.56 30z"/></mask><path fill-rule="evenodd" clip-rule="evenodd" d="M30.558 30H8l1.735 1.94h4.677L53.115 94H70.47L30.56 30z" fill="#26BAE9"/><path d="M8 30v-1H5.763l1.492 1.667L8 30zm22.558 0l.849-.53-.294-.47h-.555v1zM9.735 31.94l-.745.666.298.333h.447v-1zm4.677 0l.848-.53-.294-.47h-.554v1zM53.115 94l-.848.528.294.471h.554v-1zm17.353 0v1h1.802l-.954-1.53-.848.53zM8 31h22.558v-2H8v2zm2.48.273l-1.735-1.94-1.49 1.334 1.735 1.94 1.49-1.334zm3.931-.334H9.736v2h4.677v-2zm-.848 1.53l38.705 62.06 1.697-1.059L15.26 31.41l-1.697 1.059zm39.553 62.53L70.47 95v-2H53.117v2zm18.201-1.528l-39.91-64-1.697 1.058 39.91 64 1.697-1.058z" fill="#000" mask="url(#e)"/></g><g filter="url(#filter1_d_102_26)"><mask id="f" fill="#fff"><path fill-rule="evenodd" clip-rule="evenodd" d="M53.116 30h22.559l-1.736 1.94h-4.68L30.56 94H8l1.735-1.94h4.676L53.116 30z"/></mask><path fill-rule="evenodd" clip-rule="evenodd" d="M53.116 30h22.559l-1.736 1.94h-4.68L30.56 94H8l1.735-1.94h4.676L53.116 30z" fill="#3E494D"/><path d="M75.675 30l.745.667L77.91 29h-2.236v1zm-22.559 0v-1h-.554l-.294.47.848.53zm20.823 1.94v1h.448l.298-.334-.746-.667zm-4.68 0v-1h-.554l-.294.47.849.53zM30.56 94v1h.554l.294-.47-.849-.53zM8 94l-.745-.667L5.763 95H8v-1zm1.735-1.94v-1h-.447l-.298.334.745.667zm4.676 0v1h.555l.294-.47-.849-.53zM75.675 29H53.116v2h22.559v-2zm-.99 3.606l1.735-1.94-1.49-1.333-1.736 1.94 1.49 1.333zm-5.425.333h4.68v-2h-4.68v2zM31.407 94.53l38.701-62.06-1.697-1.059L29.71 93.47l1.697 1.06zM30.558 93H8v2h22.558v-2zM8.745 94.667l1.736-1.94-1.491-1.333-1.735 1.94 1.49 1.333zm.99-1.606h4.676v-2H9.735v2zm42.533-63.59L13.563 91.53l1.697 1.059 38.705-62.06-1.697-1.06z" fill="#000" mask="url(#f)"/></g><g filter="url(#filter2_d_102_26)"><mask id="g" fill="#fff"><path fill-rule="evenodd" clip-rule="evenodd" d="M47.91 94h22.56l38.701-62.06h4.68l1.735-1.94H93.027L54.322 92.06h-4.676L47.91 94z"/></mask><path fill-rule="evenodd" clip-rule="evenodd" d="M47.91 94h22.56l38.701-62.06h4.68l1.735-1.94H93.027L54.322 92.06h-4.676L47.91 94z" fill="#26BAE9"/><path d="M70.439 94v-1 1zM47.91 94l-.746-.667L45.675 95h2.236v-1zm22.558 0v1h.555l.293-.47-.848-.53zm38.701-62.06v-1h-.555l-.293.47.848.53zm4.68 0v1h.447l.298-.334-.745-.667zm1.735-1.94l.746.667L117.822 29h-2.237v1zm-22.558 0v-1h-.555l-.293.47.848.53zM54.322 92.06v1h.555l.293-.47-.848-.53zm-4.676 0v-1h-.447l-.298.334.745.667zm20.793.94H47.91v2h22.528v-2zm.03 0h-.03v2h.03v-2zm37.853-61.59L69.62 93.47l1.697 1.06 38.702-62.062-1.697-1.058zm5.528-.47h-4.68v2h4.68v-2zm.99-1.607l-1.735 1.94 1.49 1.333 1.736-1.94-1.491-1.333zM93.027 31h22.558v-2H93.027v2zm0 0v-2 2zM55.17 92.59l38.706-62.06-1.697-1.06-38.706 62.061 1.697 1.059zm-5.524.47h4.676v-2h-4.676v2zm-.99 1.607l1.735-1.94-1.49-1.333-1.736 1.94 1.49 1.333z" fill="#000" mask="url(#g)"/></g><defs><filter id="filter0_d_102_26" x="4" y="30" width="70.469" height="72" filterUnits="userSpaceOnUse" color-interpolation-filters="sRGB"><feFlood flood-opacity="0" result="BackgroundImageFix"/><feColorMatrix in="SourceAlpha" values="0 0 0 0 0 0 0 0 0 0 0 0 0 0 0 0 0 0 127 0" result="hardAlpha"/><feOffset dy="4"/><feGaussianBlur stdDeviation="2"/><feComposite in2="hardAlpha" operator="out"/><feColorMatrix values="0 0 0 0 0 0 0 0 0 0 0 0 0 0 0 0 0 0 0.4 0"/><feBlend in2="BackgroundImageFix" result="effect1_dropShadow_102_26"/><feBlend in="SourceGraphic" in2="effect1_dropShadow_102_26" result="shape"/></filter><filter id="filter1_d_102_26" x="4" y="30" width="75.675" height="72" filterUnits="userSpaceOnUse" color-interpolation-filters="sRGB"><feFlood flood-opacity="0" result="BackgroundImageFix"/><feColorMatrix in="SourceAlpha" values="0 0 0 0 0 0 0 0 0 0 0 0 0 0 0 0 0 0 127 0" result="hardAlpha"/><feOffset dy="4"/><feGaussianBlur stdDeviation="2"/><feComposite in2="hardAlpha" operator="out"/><feColorMatrix values="0 0 0 0 0 0 0 0 0 0 0 0 0 0 0 0 0 0 0.4 0"/><feBlend in2="BackgroundImageFix" result="effect1_dropShadow_102_26"/><feBlend in="SourceGraphic" in2="effect1_dropShadow_102_26" result="shape"/></filter><filter id="filter2_d_102_26" x="43.911" y="30" width="75.675" height="72" filterUnits="userSpaceOnUse" color-interpolation-filters="sRGB"><feFlood flood-opacity="0" result="BackgroundImageFix"/><feColorMatrix in="SourceAlpha" values="0 0 0 0 0 0 0 0 0 0 0 0 0 0 0 0 0 0 127 0" result="hardAlpha"/><feOffset dy="4"/><feGaussianBlur stdDeviation="2"/><feComposite in2="hardAlpha" operator="out"/><feColorMatrix values="0 0 0 0 0 0 0 0 0 0 0 0 0 0 0 0 0 0 0.4 0"/><feBlend in2="BackgroundImageFix" result="effect1_dropShadow_102_26"/><feBlend in="SourceGraphic" in2="effect1_dropShadow_102_26" result="shape"/></filter></defs></svg>